# xmcd
#
# Track frame offsets:
# 150
# 15505
# 30558
# 48893
# 65285
# 84696
# 100902
# 116727
# 131347
# 147596
# 166775
#
# Disc length: 2412 seconds
#
#
# Revision: 0
# Processed by: cddbd v1.5.2PL0 Copyright (c) Steve Scherf et al.
# Submitted via: FreeRIP 2.95 
#
DISCID=89096a0b
DTITLE=Scott Neff - God Is Good
DYEAR=1900
DGENRE=Country
TTITLE0=The Price Is Right
TTITLE1=Somebody Bigger Than You and I
TTITLE2=Infinite Love
TTITLE3=Endless Day
TTITLE4=The Lighthouse
TTITLE5=Come To Jesus
TTITLE6=All That He Wants Is Me
TTITLE7=God Is Good
TTITLE8=Welcome Home
TTITLE9=Trip Deuces
TTITLE10=Ain't No Grave
EXTD=
EXTT0=
EXTT1=
EXTT2=
EXTT3=
EXTT4=
EXTT5=
EXTT6=
EXTT7=
EXTT8=
EXTT9=
EXTT10=
PLAYORDER=
